<?xml version="1.0" encoding="utf-8"?>
<!-- Generator: Adobe Illustrator 27.8.1, SVG Export Plug-In . SVG Version: 6.00 Build 0)  -->
<svg version="1.1" id="Layer_1" xmlns="http://www.w3.org/2000/svg" xmlns:xlink="http://www.w3.org/1999/xlink" x="0px" y="0px"
	 viewBox="0 0 224 289" style="enable-background:new 0 0 224 289;" xml:space="preserve">
<style type="text/css">
	.st0{fill:#0052A1;}
	.st1{fill:#427FB9;}
	.st2{fill:#0152A1;}
	.st3{fill:#A3A3A2;}
	.st4{fill:#5C5B5B;}
</style>
<path class="st0" d="M155.1,168.3c9.5-5.4,19-10.9,28.5-16.3c5.6-3.2,11.3-6.5,17.4-10c0.1,1.9,0.2,3.1,0.2,4.2
	c0,15.6,0,31.3,0.1,46.9c0,2.5-0.8,3.8-3,5.1c-14.1,8-28.1,16.3-42.2,24.4c-14.7,8.5-29.8,17-44.8,25.2c-0.2-18.3-0.2-36.2,0-54.2
	c9.4-5.3,18.7-10.6,27.8-15.9c4.6-2.7,9.1-5.6,13.9-8.5C153.9,168.9,154.5,168.6,155.1,168.3z"/>
<path class="st1" d="M87.5,180.3c7.9,4.5,15.9,8.9,23.8,13.3c0,17.9,0,35.9,0,54.2c-9.8-5.2-19.7-10.6-29.5-16.3
	c-16.3-9.4-32.6-18.9-49-28.3c-3.5-2.1-7.1-4.1-10.5-6.5c15.3-9.3,30.5-18.1,45.9-26.9"/>
<path class="st0" d="M110.6,41.5c5.5,3,11.7,5.9,17.1,9.1c12.9,7.4,25.7,14.9,38.5,22.3c10.6,6.1,21.3,12.2,31.9,18.4
	c0.9,0.5,1.7,1.4,2.8,2.4c-15.3,8.9-30.3,17.5-45.8,26.2c-15-8.4-29.7-15.8-44.2-24.5C110.9,77.5,110.6,59,110.6,41.5z"/>
<path class="st1" d="M67.8,119.4C52.4,110.6,37.1,102.7,22,94c7.9-4.7,15.8-10.2,23.7-14.9c13.9-8.2,27.9-16.3,41.9-24.4
	c7.6-4.4,15.1-8.8,23-13.1c0.3,17.5,0.3,35.8,0.3,53.7"/>
<path class="st2" d="M22,94c15.2,8.3,30.4,16.3,45.8,25.4c0.3,16.9,0.5,34.2,0.5,50.7C53.1,179,37.7,188,22.3,197
	c-0.3-26.9-0.4-54.2-0.4-81.3C21.9,108.6,21.9,101.5,22,94z"/>
<path class="st3" d="M111.3,145.5c0-16.9-0.4-33.4-0.4-50c0,0,0.1-0.2,0-0.3c14.4,8.2,29.5,15.8,44.2,24.2c0.3,16-2.6,33.9-2.6,50.1
	"/>
<path d="M111.2,145.2c13.6,7.9,27.4,16.3,41.3,24.3c-4.3,2.9-8.7,5.4-13.3,8.1c-9,5.3-18.4,10.6-27.7,15.9
	c-8.2-4.4-16.2-8.8-24.1-13.3c-6-3.4-13.1-6.8-19.2-10.5"/>
<path class="st4" d="M68.3,169.7c-0.2-16.5-0.5-33.5-0.5-50.3c12.9-7.8,26.1-14.8,39.1-22.2c1.2-0.7,2.5-1.3,4.1-2
	c0.3,16.5,0.3,33.1,0.4,50"/>
</svg>
