<?xml version="1.0" encoding="utf-8"?>
<!-- Generator: Adobe Illustrator 27.8.1, SVG Export Plug-In . SVG Version: 6.00 Build 0)  -->
<svg version="1.1" id="Layer_1" xmlns="http://www.w3.org/2000/svg" xmlns:xlink="http://www.w3.org/1999/xlink" x="0px" y="0px"
	 viewBox="0 0 178.7 206.2" style="enable-background:new 0 0 178.7 206.2;" xml:space="preserve">
<style type="text/css">
	.st0{fill:#0052A1;}
	.st1{fill:#427FB9;}
	.st2{fill:#0152A1;}
	.st3{fill:#A3A3A2;}
	.st4{fill:#5C5B5B;}
</style>
<path class="st0" d="M132.8,126.7c9.5-5.4,19-10.9,28.5-16.3c5.6-3.2,11.3-6.5,17.4-10c0.1,1.9,0.2,3.1,0.2,4.2
	c0,15.6,0,31.3,0.1,46.9c0,2.5-0.8,3.8-3,5.1c-14.1,8-28.1,16.3-42.2,24.4c-14.7,8.5-29.8,17-44.8,25.2c-0.2-18.3-0.2-36.2,0-54.2
	c9.4-5.3,18.7-10.6,27.8-15.9c4.6-2.7,9.1-5.6,13.9-8.5C131.6,127.3,132.2,127,132.8,126.7z"/>
<path class="st1" d="M65.2,138.7c7.9,4.5,15.9,8.9,23.8,13.3c0,17.9,0,35.9,0,54.2c-9.8-5.2-19.7-10.6-29.5-16.3
	c-16.3-9.4-32.6-18.9-49-28.3c-3.5-2.1-7.1-4.1-10.5-6.5c15.3-9.3,30.5-18.1,45.9-26.9"/>
<path class="st0" d="M88.3-0.1c5.5,3,11.7,5.9,17.1,9.1c12.9,7.4,25.7,14.9,38.5,22.3c10.6,6.1,21.3,12.2,31.9,18.4
	c0.9,0.5,1.7,1.4,2.8,2.4c-15.3,8.9-30.3,17.5-45.8,26.2c-15-8.4-29.7-15.8-44.2-24.5C88.6,35.9,88.3,17.4,88.3-0.1z"/>
<path class="st1" d="M45.5,77.8C30.1,69,14.8,61.1-0.3,52.4c7.9-4.7,15.8-10.2,23.7-14.9c13.9-8.2,27.9-16.3,41.9-24.4
	c7.6-4.4,15.1-8.8,23-13.1c0.3,17.5,0.3,35.8,0.3,53.7"/>
<path class="st2" d="M-0.3,52.4c15.2,8.3,30.4,16.3,45.8,25.4C45.8,94.7,46,112,46,128.5c-15.2,8.9-30.6,17.9-46,26.9
	c-0.3-26.9-0.4-54.2-0.4-81.3C-0.4,67-0.4,59.9-0.3,52.4z"/>
<path class="st3" d="M89,103.9c0-16.9-0.4-33.4-0.4-50c0,0,0.1-0.2,0-0.3c14.4,8.2,29.5,15.8,44.2,24.2c0.3,16-2.6,33.9-2.6,50.1"/>
<path d="M88.9,103.6c13.6,7.9,27.4,16.3,41.3,24.3c-4.3,2.9-8.7,5.4-13.3,8.1c-9,5.3-18.4,10.6-27.7,15.9
	c-8.2-4.4-16.2-8.8-24.1-13.3c-6-3.4-13.1-6.8-19.2-10.5"/>
<path class="st4" d="M46,128.1c-0.2-16.5-0.5-33.5-0.5-50.3C58.4,70,71.6,63,84.6,55.6c1.2-0.7,2.5-1.3,4.1-2
	c0.3,16.5,0.3,33.1,0.4,50"/>
</svg>
