<svg width="416" height="417" viewBox="0 0 416 417" fill="none" xmlns="http://www.w3.org/2000/svg">
<rect y="0.849976" width="416" height="416" rx="208" fill="black"/>
<path fill-rule="evenodd" clip-rule="evenodd" d="M205.669 62.0178C167.684 62.0178 133.22 77.0854 107.925 101.57C108.056 101.559 108.191 101.605 108.288 101.708L199.582 197.694C203.054 194.105 207.92 191.875 213.307 191.875C223.854 191.875 232.404 200.424 232.404 210.971C232.404 221.518 223.854 230.068 213.307 230.068C202.76 230.068 194.211 221.518 194.211 210.971C194.211 206.136 196.008 201.721 198.97 198.356L107.636 102.328C107.541 102.228 107.501 102.096 107.515 101.968C81.3578 127.493 65.1176 163.134 65.1176 202.569L52.8958 202.569C52.8958 182.506 56.8474 162.64 64.5249 144.105C72.2025 125.57 83.4556 108.728 97.6419 94.542C111.828 80.3558 128.67 69.1026 147.205 61.4251C165.74 53.7475 185.606 49.7959 205.669 49.7959L205.669 62.0178ZM213.307 104.183C241.1 104.183 266.202 115.708 284.094 134.239L226.391 196.063C226.221 196.245 226.231 196.529 226.413 196.699C226.595 196.869 226.879 196.859 227.049 196.677L284.717 134.89C301.437 152.525 311.693 176.349 311.693 202.569L320.248 202.569C320.248 188.525 317.482 174.619 312.108 161.644C306.733 148.67 298.856 136.88 288.926 126.95C278.995 117.02 267.206 109.142 254.232 103.768C241.257 98.3939 227.351 95.6278 213.307 95.6278V104.183ZM144.675 288.174C161.441 301.438 182.63 309.357 205.669 309.357L205.669 317.912C191.625 317.912 177.719 315.146 164.744 309.772C151.769 304.398 139.98 296.52 130.05 286.59C120.119 276.66 112.242 264.87 106.868 251.896C101.494 238.921 98.7276 225.015 98.7276 210.971L107.283 210.971C107.283 242.01 121.656 269.692 144.11 287.724C144.113 287.618 144.154 287.513 144.233 287.43L201.434 227.26C201.605 227.08 201.89 227.073 202.07 227.244C202.25 227.415 202.257 227.7 202.086 227.88L144.886 288.05C144.826 288.112 144.753 288.154 144.675 288.174ZM324.592 296.833C342.941 273.086 353.858 243.303 353.858 210.971L366.08 210.971C366.08 231.034 362.128 250.9 354.451 269.435C346.773 287.97 335.52 304.812 321.334 318.998C307.148 333.184 290.306 344.437 271.771 352.115C253.236 359.792 233.37 363.744 213.307 363.744L213.307 351.522C258.276 351.522 298.312 330.404 324.039 297.544L227.934 226.228C227.735 226.08 227.693 225.798 227.841 225.598C227.989 225.399 228.271 225.357 228.471 225.505L324.592 296.833Z" fill="url(#paint0_radial_16_497)"/>
<defs>
<radialGradient id="paint0_radial_16_497" cx="0" cy="0" r="1" gradientUnits="userSpaceOnUse" gradientTransform="translate(209.488 206.77) rotate(-48.277) scale(172.783 117.382)">
<stop stop-color="#1A76D2"/>
<stop offset="1" stop-color="#8D47FF"/>
</radialGradient>
</defs>
</svg>
